<svg width="40" height="40" viewBox="0 0 40 40" fill="none" xmlns="http://www.w3.org/2000/svg">
<g id="&#235;&#158;&#156;&#235;&#148;&#169;&#237;&#142;&#152;&#236;&#157;&#180;&#236;&#167;&#128;">
<g id="Frame 2611503">
<g id="Frame 2611532">
<g id="Frame 2611522">
<g id="Frame 2611519">
<g id="img_note">
<rect width="40" height="40" rx="12" fill="#C7F2EB"/>
<rect id="Rectangle 6389" x="11" y="9" width="18" height="22" rx="2" fill="url(#paint0_linear_1_65264)"/>
<path id="Rectangle 6390" d="M11 11C11 9.89543 11.8954 9 13 9H27C28.1046 9 29 9.89543 29 11V14H11V11Z" fill="white"/>
<rect id="Rectangle 6394" x="14" y="17" width="12" height="2" fill="#FFF0C9"/>
<rect id="Rectangle 6396" x="14" y="21" width="12" height="2" fill="#FFF0C9"/>
<rect id="Rectangle 6397" x="14" y="25" width="12" height="2" fill="#FFF0C9"/>
<rect id="Rectangle 6391" x="26" y="8" width="3" height="2" rx="1" transform="rotate(90 26 8)" fill="#5EBABF"/>
<rect id="Rectangle 6392" x="21" y="8" width="3" height="2" rx="1" transform="rotate(90 21 8)" fill="#5EBABF"/>
<rect id="Rectangle 6393" x="16" y="8" width="3" height="2" rx="1" transform="rotate(90 16 8)" fill="#5EBABF"/>
</g>
</g>
</g>
</g>
</g>
</g>
<defs>
<linearGradient id="paint0_linear_1_65264" x1="20" y1="9" x2="20" y2="31" gradientUnits="userSpaceOnUse">
<stop stop-color="#8CE6E3"/>
<stop offset="1" stop-color="#09D5C0"/>
</linearGradient>
</defs>
</svg>
